<svg width="245" height="33" viewBox="0 0 245 33" fill="none" xmlns="http://www.w3.org/2000/svg">
<path d="M32.896 1.536L27.04 24H20.416L16.832 9.216L13.12 24H6.496L0.8 1.536H6.656L9.888 17.888L13.888 1.536H19.904L23.744 17.888L27.008 1.536H32.896ZM43.7683 24.256C42.0189 24.256 40.4403 23.8827 39.0323 23.136C37.6456 22.3893 36.5469 21.3227 35.7363 19.936C34.9469 18.5493 34.5523 16.928 34.5523 15.072C34.5523 13.2373 34.9576 11.6267 35.7682 10.24C36.5789 8.832 37.6883 7.75467 39.0963 7.008C40.5043 6.26133 42.0829 5.888 43.8323 5.888C45.5816 5.888 47.1603 6.26133 48.5683 7.008C49.9763 7.75467 51.0856 8.832 51.8963 10.24C52.7069 11.6267 53.1123 13.2373 53.1123 15.072C53.1123 16.9067 52.6963 18.528 51.8643 19.936C51.0536 21.3227 49.9336 22.3893 48.5043 23.136C47.0963 23.8827 45.5176 24.256 43.7683 24.256ZM43.7683 19.52C44.8136 19.52 45.6989 19.136 46.4243 18.368C47.1709 17.6 47.5443 16.5013 47.5443 15.072C47.5443 13.6427 47.1816 12.544 46.4563 11.776C45.7523 11.008 44.8776 10.624 43.8323 10.624C42.7656 10.624 41.8803 11.008 41.1763 11.776C40.4723 12.5227 40.1203 13.6213 40.1203 15.072C40.1203 16.5013 40.4616 17.6 41.1443 18.368C41.8483 19.136 42.7229 19.52 43.7683 19.52ZM61.4873 9.12C62.1273 8.13867 62.9273 7.37067 63.8873 6.816C64.8473 6.24 65.9139 5.952 67.0873 5.952V11.744H65.5833C64.2179 11.744 63.1939 12.0427 62.5113 12.64C61.8286 13.216 61.4873 14.24 61.4873 15.712V24H56.0153V6.144H61.4873V9.12ZM80.6148 24L75.1748 16.512V24H69.7028V0.32H75.1748V13.408L80.5828 6.144H87.3348L79.9108 15.104L87.3988 24H80.6148ZM104.108 1.536V5.92H94.956V10.656H101.804V14.912H94.956V24H89.484V1.536H104.108ZM112.456 0.32V24H106.984V0.32H112.456ZM124.55 24.256C122.8 24.256 121.222 23.8827 119.814 23.136C118.427 22.3893 117.328 21.3227 116.518 19.936C115.728 18.5493 115.334 16.928 115.334 15.072C115.334 13.2373 115.739 11.6267 116.549 10.24C117.36 8.832 118.47 7.75467 119.878 7.008C121.286 6.26133 122.864 5.888 124.614 5.888C126.363 5.888 127.942 6.26133 129.35 7.008C130.758 7.75467 131.867 8.832 132.678 10.24C133.488 11.6267 133.894 13.2373 133.894 15.072C133.894 16.9067 133.478 18.528 132.646 19.936C131.835 21.3227 130.715 22.3893 129.286 23.136C127.878 23.8827 126.299 24.256 124.55 24.256ZM124.55 19.52C125.595 19.52 126.48 19.136 127.206 18.368C127.952 17.6 128.326 16.5013 128.326 15.072C128.326 13.6427 127.963 12.544 127.238 11.776C126.534 11.008 125.659 10.624 124.614 10.624C123.547 10.624 122.662 11.008 121.958 11.776C121.254 12.5227 120.902 13.6213 120.902 15.072C120.902 16.5013 121.243 17.6 121.926 18.368C122.63 19.136 123.504 19.52 124.55 19.52ZM162.429 6.144L157.597 24H151.549L148.733 12.416L145.821 24H139.805L134.941 6.144H140.413L142.941 18.912L145.949 6.144H151.741L154.781 18.848L157.277 6.144H162.429Z" fill="url(#paint0_linear_7_1279)"/>
<path d="M180.739 15.264H175.171V20.96H169.987V15.264H164.419V10.368H169.987V4.64H175.171V10.368H180.739V15.264Z" fill="url(#paint1_linear_7_1279)"/>
<path d="M201.729 8.768C201.729 10.0693 201.43 11.264 200.833 12.352C200.236 13.4187 199.318 14.2827 198.081 14.944C196.844 15.6053 195.308 15.936 193.473 15.936H190.081V24H184.609V1.536H193.473C195.265 1.536 196.78 1.84533 198.017 2.464C199.254 3.08267 200.182 3.936 200.801 5.024C201.42 6.112 201.729 7.36 201.729 8.768ZM193.057 11.584C194.102 11.584 194.881 11.3387 195.393 10.848C195.905 10.3573 196.161 9.664 196.161 8.768C196.161 7.872 195.905 7.17867 195.393 6.688C194.881 6.19733 194.102 5.952 193.057 5.952H190.081V11.584H193.057ZM203.49 15.04C203.49 13.2053 203.831 11.5947 204.514 10.208C205.218 8.82133 206.167 7.75467 207.362 7.008C208.556 6.26133 209.89 5.888 211.362 5.888C212.62 5.888 213.719 6.144 214.658 6.656C215.618 7.168 216.354 7.84 216.866 8.672V6.144H222.338V24H216.866V21.472C216.332 22.304 215.586 22.976 214.626 23.488C213.687 24 212.588 24.256 211.33 24.256C209.879 24.256 208.556 23.8827 207.362 23.136C206.167 22.368 205.218 21.2907 204.514 19.904C203.831 18.496 203.49 16.8747 203.49 15.04ZM216.866 15.072C216.866 13.7067 216.482 12.6293 215.714 11.84C214.967 11.0507 214.05 10.656 212.962 10.656C211.874 10.656 210.946 11.0507 210.178 11.84C209.431 12.608 209.058 13.6747 209.058 15.04C209.058 16.4053 209.431 17.4933 210.178 18.304C210.946 19.0933 211.874 19.488 212.962 19.488C214.05 19.488 214.967 19.0933 215.714 18.304C216.482 17.5147 216.866 16.4373 216.866 15.072ZM244.537 6.144L233.337 32.48H227.449L231.545 23.392L224.28 6.144H230.393L234.521 17.312L238.617 6.144H244.537Z" fill="url(#paint2_linear_7_1279)"/>
<defs>
<linearGradient id="paint0_linear_7_1279" x1="0" y1="13" x2="245" y2="13" gradientUnits="userSpaceOnUse">
<stop stop-color="#035BC0"/>
<stop offset="0.519231" stop-color="#00AAFF"/>
<stop offset="0.9375" stop-color="#035BC0"/>
</linearGradient>
<linearGradient id="paint1_linear_7_1279" x1="0" y1="13" x2="245" y2="13" gradientUnits="userSpaceOnUse">
<stop stop-color="#035BC0"/>
<stop offset="0.519231" stop-color="#00AAFF"/>
<stop offset="0.705654" stop-color="white"/>
</linearGradient>
<linearGradient id="paint2_linear_7_1279" x1="0" y1="13" x2="245" y2="13" gradientUnits="userSpaceOnUse">
<stop offset="0.9375" stop-color="white"/>
</linearGradient>
</defs>
</svg>
